<?xml version="1.0" encoding="utf-8"?>
<!-- Generator: Adobe Illustrator 23.0.2, SVG Export Plug-In . SVG Version: 6.00 Build 0)  -->
<svg version="1.1" id="Layer_1" xmlns="http://www.w3.org/2000/svg" xmlns:xlink="http://www.w3.org/1999/xlink" x="0px" y="0px"
	 viewBox="0 0 526.3 404.8" style="enable-background:new 0 0 526.3 404.8;" xml:space="preserve">
<style type="text/css">
	.st0{fill-rule:evenodd;clip-rule:evenodd;fill:#2A3646;}
	.st1{fill:#2A3646;}
</style>
<title>TL CHASSE_map</title>
<g id="Calque_2">
	<g id="Calque_1-2">
		<polygon class="st0" points="404.6,98.1 402.4,96.4 399.6,96.3 397,93.9 393,92.8 391.8,87.7 388.1,80.2 386,61.3 385,57.2 
			385.1,47.2 384.7,38.9 383.9,37 383.2,32.3 380.3,28.6 378.9,25.5 377.2,22.9 373.5,23 359,21.9 355.9,18.5 354.4,13.7 
			352.6,13.1 352.5,13.1 347.9,18.1 339.7,19.8 331.5,17.5 327.2,17.2 321.8,20 314.1,21.2 308.4,20 301.4,12.5 298.6,10.4 
			297.4,6.3 297.4,3.4 298.4,1.9 296.8,0 291.9,1.8 289.7,3.7 285.7,3.3 280.8,8.7 279.7,22.7 274.2,29.9 273,40.5 269.7,47.2 
			258,58 255.2,58.2 249.6,62.2 240.1,65.3 233.1,72.9 230.4,73 220.2,79.8 213.9,81.8 210.3,87.3 198.6,95.7 202.7,104.6 
			202,110.8 191.7,120.1 185.1,133.7 184.8,139.3 189,147.9 185.7,157.4 187.9,159.5 190.8,163.2 189,170.6 172.9,188.8 171.1,196 
			163.8,204 155.6,204.7 137.8,220.9 112.8,225.5 106.6,234.1 96.6,248 96.6,258.1 92,258.3 74.1,267.6 72.4,272.6 65.4,276.7 
			67.5,283.3 51.8,306.2 50.8,313.6 38.8,324.9 35.1,326.8 28.7,340.8 29.3,344.7 19,358.3 18.6,360.8 21.7,363.1 17.3,364.8 
			9.1,379.8 6,380.5 2.3,384.5 2.7,390.8 0,396.3 0.5,404.8 103.3,403.8 102.3,356.9 105.5,349.9 111.1,346 117.4,345.1 
			126.4,345.1 127.6,277.4 208.9,278.9 209.9,242.9 209.8,242.7 209.9,235.5 210,235.4 210.4,213.5 222.2,205.1 227.2,198.6 
			234.7,193.4 248.3,190.7 256.1,190.7 260.5,189.4 270.3,189.2 280.4,186.9 301.3,174.6 328.7,158.9 346.4,146.5 348.7,141.6 
			348.4,133.5 350.9,127.5 356.3,122.9 362.5,113 368.6,111.7 398.8,111.7 402.3,106.8 401.8,105.2 		"/>
		<path class="st1" d="M108.4,51l-2.1-4h-1.4v4h-2.5V39.9h4c2.3,0,4.3,0.8,4.3,3.5c0.1,1.4-0.7,2.7-2,3.2l2.5,4.4L108.4,51z
			 M104.9,45h1.3c1.3,0,2-0.6,2-1.7s-0.7-1.5-2-1.5h-1.3V45z"/>
		<path class="st1" d="M116.9,45.6c0-0.7-0.5-1.2-1.1-1.2c-0.1,0-0.1,0-0.2,0c-0.8,0.1-1.6,0.3-2.2,0.8l-0.9-1.7
			c1.1-0.7,2.3-1.1,3.6-1.1c2.2,0,3.3,1.2,3.3,3.8V51h-2l-0.2-0.9h-0.1c-0.7,0.7-1.5,1-2.5,1.1c-1.3,0-2.5-1-2.5-2.3
			c0-0.1,0-0.1,0-0.2C112.2,46.9,113.6,45.9,116.9,45.6z M115.5,49.3c0.5,0,1.1-0.3,1.4-0.7v-1.5c-1.8,0.2-2.4,0.8-2.4,1.4
			S114.9,49.3,115.5,49.3z"/>
		<path class="st1" d="M121.6,39.1h2.5V42l-0.1,1.3c0.6-0.6,1.4-0.9,2.2-0.9c2,0,3.3,1.7,3.3,4.3c0,2.9-1.7,4.6-3.6,4.6
			c-0.9,0-1.6-0.4-2.2-1.1h-0.1l-0.2,0.9h-2L121.6,39.1z M125.4,49.2c0.9,0,1.6-0.7,1.6-2.5c0-1.5-0.5-2.3-1.5-2.3
			c-0.6,0-1.1,0.3-1.4,0.8v3.5C124.4,49,124.9,49.2,125.4,49.2z"/>
		<path class="st1" d="M135.5,45.6c0-0.7-0.5-1.2-1.1-1.2c-0.1,0-0.1,0-0.2,0c-0.8,0.1-1.6,0.3-2.2,0.8l-0.9-1.7
			c1.1-0.7,2.3-1.1,3.6-1.1c2.2,0,3.4,1.2,3.4,3.8V51h-2l-0.2-0.9h-0.1c-0.7,0.7-1.5,1-2.5,1.1c-1.3,0-2.5-1-2.5-2.3
			c0-0.1,0-0.1,0-0.2C130.8,46.9,132.2,45.9,135.5,45.6z M134.1,49.3c0.5,0,1.1-0.3,1.4-0.7v-1.5c-1.8,0.2-2.4,0.8-2.4,1.4
			S133.6,49.3,134.1,49.3z"/>
		<path class="st1" d="M140.5,44.5h-1.2v-1.8l1.3-0.1l0.3-2.3h2.1v2.3h2v2h-2V48c0,1,0.4,1.3,1.1,1.3c0.3,0,0.5-0.1,0.8-0.2l0.4,1.8
			c-0.6,0.2-1.2,0.3-1.9,0.3c-2.1,0-2.9-1.3-2.9-3.3L140.5,44.5z"/>
		<path class="st1" d="M151.1,47.9c0.7,0.7,1.7,1.1,2.7,1.2c1,0,1.6-0.4,1.6-1.1s-0.6-0.9-1.6-1.3l-1.4-0.6c-1.3-0.4-2.2-1.6-2.2-3
			c0-1.8,1.6-3.3,3.9-3.3c1.3,0,2.6,0.5,3.6,1.5l-1.3,1.6c-0.6-0.6-1.5-0.9-2.3-0.9c-0.9,0-1.4,0.4-1.4,1s0.7,0.9,1.7,1.3l1.4,0.6
			c1.3,0.4,2.2,1.6,2.2,3c0,1.8-1.5,3.4-4.2,3.4c-1.5,0-3-0.6-4.1-1.6L151.1,47.9z"/>
		<path class="st1" d="M164.1,45.6c0-0.7-0.5-1.2-1.1-1.2c-0.1,0-0.1,0-0.2,0c-0.8,0.1-1.6,0.3-2.2,0.8l-0.9-1.7
			c1.1-0.7,2.3-1.1,3.6-1.1c2.2,0,3.4,1.2,3.4,3.8V51h-2l-0.2-0.9l0,0c-0.7,0.7-1.5,1-2.5,1.1c-1.3,0-2.5-1-2.5-2.3
			c0-0.1,0-0.1,0-0.2C159.3,46.9,160.8,45.9,164.1,45.6z M162.7,49.3c0.5,0,1.1-0.3,1.4-0.7v-1.5c-1.8,0.2-2.4,0.8-2.4,1.4
			S162.1,49.3,162.7,49.3z"/>
		<path class="st1" d="M168.7,39.1h2.5v9.4c0,0.5,0.2,0.7,0.4,0.7c0.1,0,0.2,0,0.3,0l0.3,1.8c-0.4,0.1-0.8,0.2-1.3,0.2
			c-1.7,0-2.3-1.1-2.3-2.8V39.1z"/>
		<path class="st1" d="M177.1,42.4c2.4,0,3.6,1.8,3.6,4c0,0.3,0,0.7-0.1,1h-5.1c0.1,1.1,1,1.9,2.1,1.8c0,0,0,0,0.1,0
			c0.6,0,1.3-0.2,1.8-0.6l0.8,1.5c-0.9,0.6-1.9,1-3,1c-2.3,0.1-4.2-1.7-4.3-3.9c0-0.2,0-0.3,0-0.5c-0.2-2.3,1.6-4.3,3.9-4.4
			C177,42.4,177,42.4,177.1,42.4z M178.5,45.9c0-1-0.4-1.7-1.4-1.7c-0.8,0-1.5,0.5-1.6,1.7H178.5z M177.5,41.3h-1.8l1.5-2.5h2.4
			L177.5,41.3z"/>
		<path class="st1" d="M186.1,39.9h2.5v4.5h0.1l3.3-4.5h2.7l-3.4,4.4l4,6.7h-2.8l-2.7-4.7l-1.3,1.7v3h-2.5V39.9z"/>
		<path class="st1" d="M199.6,42.4c2.4,0,3.6,1.8,3.6,4c0,0.3,0,0.7-0.1,1h-5c0.1,1.1,1.1,1.9,2.2,1.8c0.6,0,1.3-0.2,1.8-0.6
			l0.8,1.5c-0.9,0.6-1.9,1-3,1c-2.3,0.1-4.2-1.7-4.3-3.9c0-0.2,0-0.3,0-0.5C195.5,44.5,197.2,42.5,199.6,42.4
			C199.5,42.4,199.5,42.4,199.6,42.4z M201,45.9c0-1-0.4-1.7-1.4-1.7c-0.8,0-1.5,0.5-1.6,1.7H201z M200,41.3h-1.8l1.5-2.5h2.4
			L200,41.3z"/>
		<path class="st1" d="M204.9,42.6h2l0.2,1.1h0.1c0.7-0.8,1.7-1.2,2.7-1.3c1.8,0,2.6,1.3,2.6,3.4V51H210v-4.9c0-1.2-0.3-1.6-1-1.6
			c-0.6,0-1.2,0.3-1.6,0.8V51h-2.5L204.9,42.6z"/>
		<path class="st1" d="M214.4,40c0.1-0.8,0.8-1.4,1.6-1.3c0.7,0.1,1.3,0.6,1.3,1.3c-0.1,0.8-0.8,1.4-1.6,1.3
			C215,41.3,214.5,40.7,214.4,40z M214.6,42.5h2.5V51h-2.5V42.5z"/>
		<path class="st1" d="M219.6,44.5h-1.2v-1.8l1.3-0.1l0.3-2.3h2.1v2.3h2v2h-2V48c0,1,0.4,1.3,1.1,1.3c0.3,0,0.5-0.1,0.8-0.2l0.4,1.8
			c-0.6,0.2-1.2,0.3-1.9,0.3c-2.1,0-2.9-1.3-2.9-3.3V44.5z"/>
		<path class="st1" d="M225.8,42.6h2l0.2,1.5h0.1c0.4-1,1.3-1.6,2.4-1.7c0.3,0,0.7,0,1,0.2l-0.4,2.2c-0.3-0.1-0.6-0.1-0.9-0.1
			c-0.9,0.1-1.6,0.7-1.9,1.5V51h-2.5L225.8,42.6z"/>
		<path class="st1" d="M236.5,45.6c0-0.6-0.5-1.2-1.1-1.2c-0.1,0-0.1,0-0.2,0c-0.8,0.1-1.6,0.3-2.2,0.8l-0.9-1.7
			c1.1-0.7,2.3-1.1,3.6-1.1c2.1,0,3.3,1.2,3.3,3.8V51h-2l-0.2-0.9l0,0c-0.7,0.7-1.5,1-2.5,1.1c-1.3,0-2.5-1-2.5-2.3
			c0-0.1,0-0.1,0-0.2C231.8,46.9,233.2,45.9,236.5,45.6z M235.1,49.3c0.5,0,1.1-0.3,1.4-0.7v-1.5c-1.8,0.2-2.4,0.8-2.4,1.4
			S234.5,49.3,235.1,49.3z"/>
		<path class="st1" d="M378.2,126.3h3.8c2.3,0,4.1,0.6,4.1,2.8c0,1.1-0.8,2.1-1.9,2.4v0.1c1.6,0.3,2.4,1.1,2.4,2.6
			c0,2.3-1.9,3.3-4.3,3.3h-4.1L378.2,126.3z M381.8,130.8c1.2,0,1.8-0.5,1.8-1.4s-0.6-1.2-1.7-1.2h-1.2v2.5H381.8z M382.1,135.4
			c1.4,0,2.1-0.5,2.1-1.5s-0.7-1.4-2.1-1.4h-1.4v2.9H382.1z"/>
		<path class="st1" d="M391.7,128.7c2.4,0,3.6,1.8,3.6,4c0,0.4,0,0.7-0.1,1.1h-5c0.1,1.1,1.1,1.9,2.2,1.8c0,0,0,0,0,0
			c0.6,0,1.3-0.2,1.8-0.6l0.8,1.5c-0.9,0.6-1.9,1-3,1c-2.4-0.1-4.4-2.1-4.3-4.5C387.8,130.8,389.5,128.9,391.7,128.7L391.7,128.7z
			 M393.2,132.3c0-1-0.4-1.6-1.4-1.6c-0.8,0-1.5,0.5-1.6,1.6H393.2z"/>
		<path class="st1" d="M397,128.9h2l0.2,1.1h0.1c0.7-0.8,1.7-1.2,2.7-1.3c1.8,0,2.6,1.3,2.6,3.4v5.2h-2.5v-4.9c0-1.2-0.3-1.6-1-1.6
			c-0.6,0-1.2,0.3-1.6,0.8v5.7H397L397,128.9z"/>
		<path class="st1" d="M406.6,126.4c0-0.7,0.6-1.3,1.4-1.3c0,0,0.1,0,0.1,0c0.7-0.1,1.4,0.4,1.5,1.1c0.1,0.7-0.4,1.4-1.1,1.5
			c-0.1,0-0.2,0-0.3,0C407.3,127.8,406.6,127.2,406.6,126.4C406.6,126.4,406.6,126.4,406.6,126.4z M406.8,128.9h2.5v8.4h-2.5V128.9z
			"/>
		<path class="st1" d="M415.2,126.3h2.7l1.9,5l0.7,1.9h0.1l0.7-1.9l1.8-5h2.7v11.1h-2.4v-4.1c0-1.1,0.2-2.7,0.3-3.8h-0.1l-0.9,2.6
			l-1.7,4.3h-1l-1.7-4.3l-0.9-2.6h-0.1c0.1,1.1,0.3,2.7,0.3,3.8v4.1h-2.3L415.2,126.3z"/>
		<path class="st1" d="M431.4,128.7c2.4,0,3.6,1.8,3.6,4c0,0.4,0,0.7-0.1,1.1h-5c0.1,1.1,1.1,1.9,2.2,1.8c0,0,0,0,0,0
			c0.6,0,1.3-0.2,1.8-0.6l0.8,1.5c-0.9,0.6-1.9,1-3,1c-2.4-0.1-4.4-2.1-4.3-4.5C427.5,130.8,429.2,128.9,431.4,128.7L431.4,128.7z
			 M432.9,132.3c0-1-0.4-1.6-1.4-1.6c-0.8,0-1.5,0.5-1.6,1.6H432.9z"/>
		<path class="st1" d="M436.7,125.5h2.5v9.4c0,0.5,0.2,0.7,0.4,0.7c0.1,0,0.2,0,0.3,0l0.3,1.9c-0.4,0.2-0.8,0.2-1.3,0.2
			c-1.7,0-2.3-1.1-2.3-2.8L436.7,125.5z"/>
		<path class="st1" d="M441.6,125.5h2.5v9.4c0,0.5,0.2,0.7,0.4,0.7c0.1,0,0.2,0,0.3,0l0.3,1.9c-0.4,0.2-0.8,0.2-1.3,0.2
			c-1.7,0-2.3-1.1-2.3-2.8V125.5z"/>
		<path class="st1" d="M450.9,132c0-0.6-0.5-1.2-1.1-1.2c-0.1,0-0.1,0-0.2,0c-0.8,0-1.6,0.3-2.2,0.8l-0.9-1.6
			c1.1-0.7,2.3-1.1,3.6-1.1c2.2,0,3.4,1.2,3.4,3.8v4.8h-2l-0.2-0.9h0c-0.7,0.6-1.5,1-2.5,1.1c-1.3,0-2.5-1-2.5-2.4
			c0-0.1,0-0.1,0-0.2C446.2,133.3,447.6,132.3,450.9,132z M449.5,135.7c0.5,0,1.1-0.3,1.4-0.7v-1.5c-1.8,0.2-2.4,0.8-2.4,1.4
			S448.9,135.6,449.5,135.7L449.5,135.7z"/>
		<path class="st1" d="M455.5,125.5h2.5v9.4c0,0.5,0.2,0.7,0.4,0.7c0.1,0,0.2,0,0.3,0l0.3,1.9c-0.4,0.2-0.8,0.2-1.3,0.2
			c-1.7,0-2.3-1.1-2.3-2.8L455.5,125.5z"/>
		<path class="st1" d="M464.1,126.3h2.5v4.5h0l3.3-4.5h2.7l-3.3,4.4l4,6.7h-2.8l-2.7-4.7l-1.3,1.7v3h-2.5L464.1,126.3z"/>
		<path class="st1" d="M474.4,125.5h2.5v2.9l-0.1,1.5c0.7-0.7,1.6-1.1,2.6-1.1c1.8,0,2.6,1.3,2.6,3.4v5.2h-2.5v-4.9
			c0-1.2-0.3-1.6-1-1.6c-0.6,0-1.2,0.3-1.6,0.8v5.7h-2.5L474.4,125.5z"/>
		<path class="st1" d="M487.5,128.7c2.4,0,3.6,1.8,3.6,4c0,0.4,0,0.7-0.1,1.1h-5c0.1,1.1,1.1,1.9,2.2,1.8c0,0,0,0,0,0
			c0.6,0,1.3-0.2,1.8-0.6l0.8,1.5c-0.9,0.6-1.9,1-3,1c-2.4-0.1-4.4-2.1-4.3-4.5C483.6,130.8,485.3,128.9,487.5,128.7z M489,132.3
			c0-1-0.4-1.6-1.4-1.6c-0.8,0-1.5,0.5-1.6,1.6H489z M488,127.6h-1.8l1.5-2.5h2.4L488,127.6z"/>
		<path class="st1" d="M492.9,128.9h2l0.2,1.1h0.1c0.7-0.8,1.7-1.2,2.7-1.3c1.8,0,2.6,1.3,2.6,3.4v5.2H498v-4.9c0-1.2-0.3-1.6-1-1.6
			c-0.6,0-1.2,0.3-1.6,0.8v5.7h-2.5L492.9,128.9z"/>
		<path class="st1" d="M502.4,126.4c0-0.7,0.6-1.3,1.3-1.3c0,0,0.1,0,0.1,0c0.7-0.1,1.4,0.4,1.5,1.1c0.1,0.7-0.4,1.4-1.1,1.5
			c-0.1,0-0.2,0-0.3,0c-0.7,0.1-1.4-0.5-1.4-1.2C502.4,126.5,502.4,126.4,502.4,126.4z M502.6,128.9h2.5v8.4h-2.5V128.9z"/>
		<path class="st1" d="M512,127.4c-0.3-0.1-0.6-0.2-0.9-0.2c-0.6,0-1,0.3-1,1.2v0.5h1.5v2h-1.5v6.5h-2.5v-6.5h-1.1V129l1.1-0.1v-0.5
			c0-1.8,0.8-3.3,3.1-3.3c0.6,0,1.1,0.1,1.7,0.3L512,127.4z"/>
		<path class="st1" d="M513.1,128.9h2l0.2,1.5h0.1c0.4-1,1.3-1.6,2.4-1.7c0.3,0,0.7,0,1,0.2l-0.4,2.2c-0.3-0.1-0.6-0.1-0.9-0.1
			c-0.9,0.1-1.6,0.7-1.9,1.6v4.9H513L513.1,128.9z"/>
		<path class="st1" d="M523.8,132c0-0.6-0.5-1.2-1.1-1.2c-0.1,0-0.1,0-0.2,0c-0.8,0-1.6,0.3-2.3,0.8l-0.9-1.6
			c1.1-0.7,2.3-1.1,3.6-1.1c2.2,0,3.3,1.2,3.3,3.8v4.8h-2l-0.2-0.9H524c-0.7,0.6-1.5,1-2.5,1.1c-1.3,0-2.5-1-2.5-2.4
			c0-0.1,0-0.1,0-0.2C519,133.3,520.5,132.3,523.8,132z M522.4,135.7c0.5,0,1.1-0.3,1.4-0.7v-1.5c-1.8,0.2-2.4,0.8-2.4,1.4
			S521.8,135.6,522.4,135.7L522.4,135.7z"/>
		<path class="st1" d="M52.9,138.6h2.7l1.8,5l0.7,1.9h0.1l0.7-1.9l1.8-5h2.7v11.1h-2.3v-4.1c0-1.1,0.2-2.7,0.3-3.8h-0.1l-0.9,2.6
			l-1.7,4.3h-1l-1.7-4.3l-0.9-2.6h-0.1c0.1,1.1,0.3,2.7,0.3,3.8v4.1h-2.3V138.6z"/>
		<path class="st1" d="M70.1,144.2c0-0.7-0.5-1.2-1.1-1.2c-0.1,0-0.1,0-0.2,0c-0.8,0.1-1.6,0.3-2.2,0.8l-0.9-1.6
			c1.1-0.7,2.3-1.1,3.6-1.1c2.2,0,3.3,1.2,3.3,3.8v4.8h-2l-0.2-0.9l0,0c-0.7,0.7-1.5,1-2.5,1.1c-1.3,0-2.5-1-2.5-2.3
			c0-0.1,0-0.1,0-0.2C65.3,145.5,66.7,144.6,70.1,144.2z M68.7,147.9c0.5,0,1.1-0.3,1.4-0.7v-1.5c-1.8,0.2-2.4,0.8-2.4,1.4
			S68.1,147.9,68.7,147.9z"/>
		<path class="st1" d="M74.7,141.2h2l0.2,1.5H77c0.4-1,1.3-1.6,2.4-1.7c0.3,0,0.7,0,1,0.2l-0.4,2.1c-0.3-0.1-0.6-0.1-0.9-0.1
			c-0.9,0.1-1.6,0.7-1.8,1.6v4.9h-2.5V141.2z"/>
		<path class="st1" d="M81.5,141.2h2l0.2,1.5h0.1c0.4-1,1.3-1.6,2.4-1.7c0.3,0,0.7,0,1,0.2l-0.4,2.1c-0.3-0.1-0.6-0.1-0.9-0.1
			c-0.9,0.1-1.6,0.7-1.8,1.6v4.9h-2.5L81.5,141.2z"/>
		<path class="st1" d="M92.2,144.2c0-0.6-0.5-1.2-1.1-1.2c-0.1,0-0.1,0-0.2,0c-0.8,0.1-1.6,0.3-2.3,0.8l-0.9-1.6
			c1.1-0.7,2.3-1.1,3.6-1.1c2.2,0,3.3,1.2,3.3,3.8v4.8h-2l-0.2-0.9h-0.1c-0.7,0.7-1.5,1-2.5,1.1c-1.3,0-2.5-1-2.5-2.3
			c0-0.1,0-0.1,0-0.2C87.4,145.5,88.8,144.6,92.2,144.2z M90.8,147.9c0.5,0,1.1-0.3,1.4-0.7v-1.5c-1.8,0.2-2.4,0.8-2.4,1.4
			S90.2,147.9,90.8,147.9z"/>
		<path class="st1" d="M96.8,137.7h2.4v6.8h0.1l2.7-3.4h2.7l-3,3.5l3.2,5h-2.7l-1.9-3.3l-1.1,1.2v2.1h-2.4V137.7z"/>
		<path class="st1" d="M109.2,141c2.4,0,3.6,1.8,3.6,4c0,0.4,0,0.7-0.1,1.1h-5c0.1,1.1,1.1,1.9,2.2,1.8c0,0,0,0,0,0
			c0.6,0,1.3-0.2,1.8-0.6l0.8,1.5c-0.9,0.6-1.9,1-3,1c-2.4-0.1-4.3-2.2-4.2-4.6C105.3,143,107,141.2,109.2,141L109.2,141z
			 M110.6,144.6c0-1-0.4-1.6-1.4-1.6c-0.8,0-1.5,0.5-1.6,1.6H110.6z"/>
		<path class="st1" d="M118.4,141c0.9,0,1.8,0.3,2.5,1l-1.1,1.6c-0.3-0.3-0.7-0.5-1.2-0.5c-1.2,0-2,0.9-2,2.4s0.8,2.4,1.9,2.4
			c0.6,0,1.1-0.2,1.5-0.6l1,1.6c-0.8,0.7-1.8,1-2.8,1.1c-2.2,0.1-4.1-1.7-4.2-3.9c0-0.2,0-0.3,0-0.5c-0.1-2.3,1.7-4.3,4-4.5
			C118.1,141,118.2,141,118.4,141z"/>
		<path class="st1" d="M122.4,137.7h2.5v2.9l-0.1,1.5c0.7-0.7,1.6-1.1,2.6-1.1c1.8,0,2.6,1.3,2.6,3.4v5.2h-2.5v-4.9
			c0-1.2-0.3-1.6-1-1.6c-0.6,0-1.2,0.3-1.6,0.8v5.7h-2.5L122.4,137.7z"/>
		<path class="st1" d="M136.6,146.5c0.7,0.7,1.7,1.1,2.7,1.2c1,0,1.6-0.4,1.6-1.1s-0.6-0.9-1.6-1.3l-1.4-0.6c-1.3-0.4-2.2-1.6-2.2-3
			c0-1.8,1.6-3.3,3.9-3.3c1.3,0,2.6,0.5,3.6,1.5l-1.3,1.6c-0.6-0.6-1.5-0.9-2.3-0.9c-0.9,0-1.4,0.4-1.4,1s0.7,0.9,1.7,1.3l1.4,0.6
			c1.3,0.4,2.2,1.6,2.2,3c0,1.8-1.5,3.4-4.2,3.4c-1.5,0-3-0.6-4.1-1.6L136.6,146.5z"/>
		<path class="st1" d="M149.5,144.2c0-0.7-0.5-1.2-1.1-1.2c-0.1,0-0.1,0-0.2,0c-0.8,0.1-1.6,0.3-2.2,0.8l-0.9-1.6
			c1.1-0.7,2.3-1.1,3.6-1.1c2.2,0,3.4,1.2,3.4,3.8v4.8h-2l-0.2-0.9h-0.1c-0.7,0.7-1.5,1-2.5,1.1c-1.3,0-2.5-1-2.5-2.3
			c0-0.1,0-0.1,0-0.2C144.8,145.5,146.2,144.6,149.5,144.2z M148.1,147.9c0.5,0,1.1-0.3,1.4-0.7v-1.5c-1.8,0.2-2.4,0.8-2.4,1.4
			S147.5,147.9,148.1,147.9z"/>
		<path class="st1" d="M158.9,139.7c-0.3-0.1-0.6-0.2-0.9-0.2c-0.6,0-1,0.3-1,1.2v0.5h1.5v1.9H157v6.5h-2.5v-6.5h-1.1v-1.9l1.1-0.1
			v-0.5c0-1.8,0.8-3.3,3.1-3.3c0.6,0,1.1,0.1,1.7,0.3L158.9,139.7z"/>
		<path class="st1" d="M159.7,138.7c0-0.7,0.6-1.3,1.3-1.3c0,0,0.1,0,0.1,0c0.7-0.1,1.4,0.5,1.4,1.2c0,0,0,0.1,0,0.1
			c0,0.7-0.6,1.3-1.3,1.3c0,0-0.1,0-0.1,0C160.5,140,159.8,139.5,159.7,138.7C159.7,138.7,159.7,138.7,159.7,138.7z M159.9,141.2
			h2.5v8.4h-2.5V141.2z"/>
	</g>
</g>
<g>
	<path class="st1" d="M53.7,90.9c0-3.7,2.4-5.8,5.2-5.8c1.4,0,2.6,0.7,3.3,1.4l-1.3,1.6c-0.6-0.5-1.2-0.9-2-0.9
		c-1.5,0-2.7,1.3-2.7,3.6c0,2.3,1.1,3.6,2.7,3.6c0.9,0,1.6-0.4,2.2-1l1.3,1.6c-0.9,1.1-2.1,1.6-3.6,1.6C56,96.6,53.7,94.7,53.7,90.9
		z"/>
	<path class="st1" d="M63.5,94.1c0-1.8,1.4-2.7,4.7-3.1c0-0.7-0.4-1.2-1.3-1.2c-0.7,0-1.4,0.3-2.2,0.8l-0.9-1.6
		c1.1-0.7,2.3-1.1,3.6-1.1c2.2,0,3.3,1.2,3.3,3.8v4.8h-2l-0.2-0.9h-0.1c-0.7,0.6-1.5,1.1-2.4,1.1C64.4,96.6,63.5,95.5,63.5,94.1z
		 M68.2,94v-1.5c-1.8,0.2-2.4,0.7-2.4,1.4c0,0.5,0.4,0.8,1,0.8C67.4,94.7,67.8,94.4,68.2,94z"/>
	<path class="st1" d="M72,95.4l1.1-1.6c0.8,0.6,1.5,0.9,2.2,0.9c0.7,0,1.1-0.3,1.1-0.7c0-0.6-0.8-0.8-1.7-1.1
		c-1-0.4-2.2-1.1-2.2-2.5c0-1.6,1.3-2.6,3.2-2.6c1.3,0,2.3,0.5,3,1.1l-1.1,1.5c-0.6-0.4-1.2-0.7-1.8-0.7c-0.6,0-1,0.3-1,0.7
		c0,0.5,0.8,0.7,1.7,1.1c1.1,0.4,2.3,1,2.3,2.5c0,1.5-1.2,2.7-3.5,2.7C74.2,96.6,72.9,96.1,72,95.4z"/>
	<path class="st1" d="M79.9,94.1c0-1.8,1.4-2.7,4.7-3.1c0-0.7-0.4-1.2-1.3-1.2c-0.7,0-1.4,0.3-2.2,0.8l-0.9-1.6
		c1.1-0.7,2.3-1.1,3.6-1.1c2.2,0,3.3,1.2,3.3,3.8v4.8h-2l-0.2-0.9h-0.1c-0.7,0.6-1.5,1.1-2.4,1.1C80.9,96.6,79.9,95.5,79.9,94.1z
		 M84.7,94v-1.5c-1.8,0.2-2.4,0.7-2.4,1.4c0,0.5,0.4,0.8,1,0.8C83.8,94.7,84.2,94.4,84.7,94z"/>
	<path class="st1" d="M91.5,95.5L91.5,95.5l-0.3,0.9h-2V84.5h2.5v2.9l-0.1,1.3c0.6-0.6,1.4-0.9,2.2-0.9c2,0,3.3,1.7,3.3,4.3
		c0,2.9-1.7,4.6-3.5,4.6C92.9,96.6,92.1,96.2,91.5,95.5z M94.6,92.1c0-1.5-0.5-2.3-1.5-2.3c-0.5,0-1,0.2-1.4,0.8V94
		c0.4,0.4,0.9,0.5,1.3,0.5C94,94.6,94.6,93.8,94.6,92.1z"/>
	<path class="st1" d="M98.8,93.8v-9.3h2.5v9.4c0,0.5,0.2,0.7,0.5,0.7c0.1,0,0.2,0,0.3,0l0.3,1.8c-0.3,0.1-0.7,0.2-1.3,0.2
		C99.4,96.6,98.8,95.5,98.8,93.8z"/>
	<path class="st1" d="M103.3,94.1c0-1.8,1.4-2.7,4.7-3.1c0-0.7-0.4-1.2-1.3-1.2c-0.7,0-1.4,0.3-2.2,0.8l-0.9-1.6
		c1.1-0.7,2.3-1.1,3.6-1.1c2.2,0,3.3,1.2,3.3,3.8v4.8h-2l-0.2-0.9h-0.1c-0.7,0.6-1.5,1.1-2.4,1.1C104.3,96.6,103.3,95.5,103.3,94.1z
		 M108,94v-1.5c-1.8,0.2-2.4,0.7-2.4,1.4c0,0.5,0.4,0.8,1,0.8C107.2,94.7,107.6,94.4,108,94z"/>
	<path class="st1" d="M112.6,88h2l0.2,1.1h0.1c0.7-0.7,1.6-1.3,2.7-1.3c1.8,0,2.6,1.3,2.6,3.4v5.2h-2.5v-4.9c0-1.2-0.3-1.6-1-1.6
		c-0.6,0-1,0.3-1.6,0.8v5.7h-2.5V88z"/>
	<path class="st1" d="M121.8,92.2c0-2.8,2.1-4.4,4.4-4.4c1,0,1.8,0.4,2.5,0.9l-1.2,1.6c-0.4-0.3-0.7-0.5-1.1-0.5c-1.2,0-2,0.9-2,2.4
		s0.8,2.4,1.9,2.4c0.6,0,1.1-0.3,1.5-0.6l1,1.6c-0.8,0.7-1.9,1-2.8,1C123.7,96.6,121.8,95,121.8,92.2z"/>
	<path class="st1" d="M129.7,94.1c0-1.8,1.4-2.7,4.7-3.1c0-0.7-0.4-1.2-1.3-1.2c-0.7,0-1.4,0.3-2.2,0.8l-0.9-1.6
		c1.1-0.7,2.3-1.1,3.6-1.1c2.2,0,3.3,1.2,3.3,3.8v4.8h-2l-0.2-0.9h-0.1c-0.7,0.6-1.5,1.1-2.4,1.1C130.7,96.6,129.7,95.5,129.7,94.1z
		 M134.4,94v-1.5c-1.8,0.2-2.4,0.7-2.4,1.4c0,0.5,0.4,0.8,1,0.8C133.6,94.7,134,94.4,134.4,94z"/>
	<path class="st1" d="M138.7,91.2h4.2V93h-4.2V91.2z"/>
	<path class="st1" d="M143.7,95l1.4-1.7c0.8,0.7,1.8,1.2,2.7,1.2c1,0,1.6-0.4,1.6-1.1c0-0.7-0.6-0.9-1.6-1.3l-1.4-0.6
		c-1.1-0.5-2.2-1.4-2.2-3c0-1.8,1.6-3.3,3.9-3.3c1.3,0,2.6,0.5,3.6,1.4l-1.3,1.6c-0.7-0.6-1.4-0.9-2.3-0.9c-0.9,0-1.4,0.4-1.4,1
		c0,0.7,0.7,0.9,1.7,1.3l1.4,0.6c1.4,0.5,2.2,1.4,2.2,3c0,1.8-1.5,3.4-4.2,3.4C146.4,96.6,144.8,96.1,143.7,95z"/>
	<path class="st1" d="M153.2,92.2c0-2.7,1.9-4.4,4-4.4c2.4,0,3.6,1.7,3.6,4c0,0.4-0.1,0.9-0.1,1.1h-5c0.2,1.2,1.1,1.8,2.2,1.8
		c0.6,0,1.2-0.2,1.8-0.6l0.8,1.5c-0.9,0.6-2,0.9-3,0.9C155,96.6,153.2,95,153.2,92.2z M158.6,91.3c0-0.9-0.4-1.6-1.4-1.6
		c-0.8,0-1.5,0.5-1.6,1.6H158.6z"/>
	<path class="st1" d="M162.6,93.4V90h-1.2v-1.9l1.3-0.1l0.3-2.2h2.1V88h2v2h-2v3.4c0,1,0.4,1.3,1.1,1.3c0.3,0,0.6-0.1,0.8-0.2
		l0.4,1.8c-0.4,0.1-1.1,0.3-1.9,0.3C163.4,96.6,162.6,95.3,162.6,93.4z"/>
	<path class="st1" d="M168.8,93.4V90h-1.2v-1.9l1.3-0.1l0.3-2.2h2.1V88h2v2h-2v3.4c0,1,0.4,1.3,1.1,1.3c0.3,0,0.6-0.1,0.8-0.2
		l0.4,1.8c-0.4,0.1-1.1,0.3-1.9,0.3C169.6,96.6,168.8,95.3,168.8,93.4z"/>
	<path class="st1" d="M174.2,94.1c0-1.8,1.4-2.7,4.7-3.1c0-0.7-0.4-1.2-1.3-1.2c-0.7,0-1.4,0.3-2.2,0.8l-0.9-1.6
		c1.1-0.7,2.3-1.1,3.6-1.1c2.2,0,3.3,1.2,3.3,3.8v4.8h-2l-0.2-0.9h-0.1c-0.7,0.6-1.5,1.1-2.4,1.1C175.2,96.6,174.2,95.5,174.2,94.1z
		 M178.9,94v-1.5c-1.8,0.2-2.4,0.7-2.4,1.4c0,0.5,0.4,0.8,1,0.8C178.1,94.7,178.5,94.4,178.9,94z"/>
	<path class="st1" d="M183.6,93.4V90h-1.2v-1.9l1.3-0.1l0.3-2.2h2.1V88h2v2h-2v3.4c0,1,0.4,1.3,1.1,1.3c0.3,0,0.6-0.1,0.8-0.2
		l0.4,1.8c-0.4,0.1-1.1,0.3-1.9,0.3C184.4,96.6,183.6,95.3,183.6,93.4z"/>
</g>
<g>
	<path class="st1" d="M76.3,177.6l1.4-1.7c0.8,0.7,1.8,1.2,2.7,1.2c1,0,1.6-0.4,1.6-1.1c0-0.7-0.6-0.9-1.6-1.3L79,174
		c-1.1-0.5-2.2-1.4-2.2-3c0-1.8,1.6-3.3,3.9-3.3c1.3,0,2.6,0.5,3.6,1.4l-1.3,1.6c-0.7-0.6-1.4-0.9-2.3-0.9c-0.9,0-1.4,0.4-1.4,1
		c0,0.7,0.7,0.9,1.7,1.3l1.4,0.6c1.4,0.5,2.2,1.4,2.2,3c0,1.8-1.5,3.4-4.2,3.4C79,179.2,77.4,178.6,76.3,177.6z"/>
	<path class="st1" d="M85.8,174.8c0-2.8,2-4.4,4.1-4.4s4.1,1.6,4.1,4.4c0,2.8-2,4.4-4.1,4.4S85.8,177.6,85.8,174.8z M91.4,174.8
		c0-1.5-0.5-2.4-1.5-2.4c-1,0-1.5,0.9-1.5,2.4s0.5,2.4,1.5,2.4C90.9,177.2,91.4,176.2,91.4,174.8z"/>
	<path class="st1" d="M95.6,175.8v-5.2h2.5v4.9c0,1.2,0.3,1.6,1,1.6c0.6,0,1-0.3,1.5-0.9v-5.6h2.5v8.4h-2l-0.2-1.2h-0.1
		c-0.7,0.8-1.5,1.4-2.6,1.4C96.4,179.2,95.6,177.9,95.6,175.8z"/>
	<path class="st1" d="M104.5,178l1.1-1.6c0.8,0.6,1.5,0.9,2.2,0.9c0.7,0,1.1-0.3,1.1-0.7c0-0.6-0.8-0.8-1.7-1.1
		c-1-0.4-2.2-1.1-2.2-2.5c0-1.6,1.3-2.6,3.2-2.6c1.3,0,2.3,0.5,3,1.1l-1.1,1.5c-0.6-0.4-1.2-0.7-1.8-0.7c-0.6,0-1,0.3-1,0.7
		c0,0.5,0.8,0.7,1.7,1.1c1.1,0.4,2.3,1,2.3,2.5c0,1.5-1.2,2.7-3.5,2.7C106.7,179.2,105.4,178.7,104.5,178z"/>
	<path class="st1" d="M112.1,178l1.1-1.6c0.8,0.6,1.5,0.9,2.2,0.9c0.7,0,1.1-0.3,1.1-0.7c0-0.6-0.8-0.8-1.7-1.1
		c-1-0.4-2.2-1.1-2.2-2.5c0-1.6,1.3-2.6,3.2-2.6c1.3,0,2.3,0.5,3,1.1l-1.1,1.5c-0.6-0.4-1.2-0.7-1.8-0.7c-0.6,0-1,0.3-1,0.7
		c0,0.5,0.8,0.7,1.7,1.1c1.1,0.4,2.3,1,2.3,2.5c0,1.5-1.2,2.7-3.5,2.7C114.2,179.2,112.9,178.7,112.1,178z"/>
	<path class="st1" d="M123.9,167.9h2.7l1.8,4.9c0.2,0.7,0.4,1.4,0.6,2h0.1c0.2-0.7,0.4-1.4,0.6-2l1.7-4.9h2.7V179H132v-4.1
		c0-1.1,0.2-2.7,0.3-3.8h-0.1l-0.9,2.6l-1.6,4.2h-1.4l-1.6-4.2l-0.9-2.6h-0.1c0.1,1.1,0.3,2.7,0.3,3.8v4.1h-2.2V167.9z"/>
	<path class="st1" d="M136.3,176.7c0-1.8,1.4-2.7,4.7-3.1c0-0.7-0.4-1.2-1.3-1.2c-0.7,0-1.4,0.3-2.2,0.8l-0.9-1.6
		c1.1-0.7,2.3-1.1,3.6-1.1c2.2,0,3.3,1.2,3.3,3.8v4.8h-2l-0.2-0.9h-0.1c-0.7,0.6-1.5,1.1-2.4,1.1
		C137.2,179.2,136.3,178.1,136.3,176.7z M141,176.5v-1.5c-1.8,0.2-2.4,0.7-2.4,1.4c0,0.5,0.4,0.8,1,0.8
		C140.2,177.3,140.6,177,141,176.5z"/>
	<path class="st1" d="M144.8,178l1.1-1.6c0.8,0.6,1.5,0.9,2.2,0.9c0.7,0,1.1-0.3,1.1-0.7c0-0.6-0.8-0.8-1.7-1.1
		c-1-0.4-2.2-1.1-2.2-2.5c0-1.6,1.3-2.6,3.2-2.6c1.3,0,2.3,0.5,3,1.1l-1.1,1.5c-0.6-0.4-1.2-0.7-1.8-0.7c-0.6,0-1,0.3-1,0.7
		c0,0.5,0.8,0.7,1.7,1.1c1.1,0.4,2.3,1,2.3,2.5c0,1.5-1.2,2.7-3.5,2.7C147,179.2,145.7,178.7,144.8,178z"/>
	<path class="st1" d="M152.4,178l1.1-1.6c0.8,0.6,1.5,0.9,2.2,0.9c0.7,0,1.1-0.3,1.1-0.7c0-0.6-0.8-0.8-1.7-1.1
		c-1-0.4-2.2-1.1-2.2-2.5c0-1.6,1.3-2.6,3.2-2.6c1.3,0,2.3,0.5,3,1.1l-1.1,1.5c-0.6-0.4-1.2-0.7-1.8-0.7c-0.6,0-1,0.3-1,0.7
		c0,0.5,0.8,0.7,1.7,1.1c1.1,0.4,2.3,1,2.3,2.5c0,1.5-1.2,2.7-3.5,2.7C154.5,179.2,153.2,178.7,152.4,178z"/>
	<path class="st1" d="M160.2,176.7c0-1.8,1.4-2.7,4.7-3.1c0-0.7-0.4-1.2-1.3-1.2c-0.7,0-1.4,0.3-2.2,0.8l-0.9-1.6
		c1.1-0.7,2.3-1.1,3.6-1.1c2.2,0,3.3,1.2,3.3,3.8v4.8h-2l-0.2-0.9h-0.1c-0.7,0.6-1.5,1.1-2.4,1.1
		C161.2,179.2,160.2,178.1,160.2,176.7z M165,176.5v-1.5c-1.8,0.2-2.4,0.7-2.4,1.4c0,0.5,0.4,0.8,1,0.8
		C164.1,177.3,164.5,177,165,176.5z"/>
</g>
<g>
	<path class="st1" d="M396.6,62.8h7v2.1h-4.5v2.6h3.8v2.1h-3.8v4.3h-2.5V62.8z"/>
	<path class="st1" d="M404.5,69.7c0-2.7,1.9-4.4,4-4.4c2.4,0,3.6,1.7,3.6,4c0,0.4-0.1,0.9-0.1,1.1h-5c0.2,1.2,1.1,1.8,2.2,1.8
		c0.6,0,1.2-0.2,1.8-0.6l0.8,1.5c-0.9,0.6-2,0.9-3,0.9C406.4,74.1,404.5,72.4,404.5,69.7z M405.2,61.5l1.7-1.7l2.6,3.1l-1.2,1.2
		L405.2,61.5z M409.9,68.7c0-0.9-0.4-1.6-1.4-1.6c-0.8,0-1.5,0.5-1.6,1.6H409.9z"/>
	<path class="st1" d="M413,72.9l1.1-1.6c0.8,0.6,1.5,0.9,2.2,0.9c0.7,0,1.1-0.3,1.1-0.7c0-0.6-0.8-0.8-1.7-1.1
		c-1-0.4-2.2-1.1-2.2-2.5c0-1.6,1.3-2.6,3.2-2.6c1.3,0,2.3,0.5,3,1.1l-1.1,1.5c-0.6-0.4-1.2-0.7-1.8-0.7c-0.6,0-1,0.3-1,0.7
		c0,0.5,0.8,0.7,1.7,1.1c1.1,0.4,2.3,1,2.3,2.5c0,1.5-1.2,2.7-3.5,2.7C415.2,74.1,413.9,73.6,413,72.9z"/>
	<path class="st1" d="M421.1,68.7h4.2v1.8h-4.2V68.7z"/>
	<path class="st1" d="M427,62.8h2.7l1.8,4.9c0.2,0.7,0.4,1.4,0.6,2h0.1c0.2-0.7,0.4-1.4,0.6-2l1.7-4.9h2.7v11.1h-2.3v-4.1
		c0-1.1,0.2-2.7,0.3-3.8h-0.1l-0.9,2.6l-1.6,4.2h-1.4l-1.6-4.2L429,66H429c0.1,1.1,0.3,2.7,0.3,3.8v4.1H427V62.8z"/>
	<path class="st1" d="M439.3,69.7c0-2.7,1.9-4.4,4-4.4c2.4,0,3.6,1.7,3.6,4c0,0.4-0.1,0.9-0.1,1.1h-5c0.2,1.2,1.1,1.8,2.2,1.8
		c0.6,0,1.2-0.2,1.8-0.6l0.8,1.5c-0.9,0.6-2,0.9-3,0.9C441.1,74.1,439.3,72.4,439.3,69.7z M444.7,68.7c0-0.9-0.4-1.6-1.4-1.6
		c-0.8,0-1.5,0.5-1.6,1.6H444.7z"/>
	<path class="st1" d="M448.5,62h2.4v6.8h0.1l2.7-3.3h2.7l-2.9,3.5l3.2,4.9h-2.7l-1.9-3.3l-1.1,1.2v2.1h-2.4V62z"/>
	<path class="st1" d="M457.8,65.4h2l0.2,1.1h0.1c0.7-0.7,1.6-1.3,2.7-1.3c1.8,0,2.6,1.3,2.6,3.4v5.2h-2.5V69c0-1.2-0.3-1.6-1-1.6
		c-0.6,0-1,0.3-1.6,0.8v5.7h-2.5V65.4z"/>
	<path class="st1" d="M467.1,69.7c0-2.7,1.9-4.4,4-4.4c2.4,0,3.6,1.7,3.6,4c0,0.4-0.1,0.9-0.1,1.1h-5c0.2,1.2,1.1,1.8,2.2,1.8
		c0.6,0,1.2-0.2,1.8-0.6l0.8,1.5c-0.9,0.6-2,0.9-3,0.9C468.9,74.1,467.1,72.4,467.1,69.7z M467.8,61.5l1.7-1.7l2.6,3.1l-1.2,1.2
		L467.8,61.5z M472.5,68.7c0-0.9-0.4-1.6-1.4-1.6c-0.8,0-1.5,0.5-1.6,1.6H472.5z"/>
	<path class="st1" d="M475.6,72.9l1.1-1.6c0.8,0.6,1.5,0.9,2.2,0.9c0.7,0,1.1-0.3,1.1-0.7c0-0.6-0.8-0.8-1.7-1.1
		c-1-0.4-2.2-1.1-2.2-2.5c0-1.6,1.3-2.6,3.2-2.6c1.3,0,2.3,0.5,3,1.1l-1.1,1.5c-0.6-0.4-1.2-0.7-1.8-0.7c-0.6,0-1,0.3-1,0.7
		c0,0.5,0.8,0.7,1.7,1.1c1.1,0.4,2.3,1,2.3,2.5c0,1.5-1.2,2.7-3.5,2.7C477.7,74.1,476.4,73.6,475.6,72.9z"/>
</g>
<g>
	<path class="st1" d="M69.7,10.2h-3V8.1h8.6v2.1h-3v9h-2.5V10.2z"/>
	<path class="st1" d="M76.3,16.9c0-1.8,1.4-2.7,4.7-3.1c0-0.7-0.4-1.2-1.3-1.2c-0.7,0-1.4,0.3-2.2,0.8l-0.9-1.6
		c1.1-0.7,2.3-1.1,3.6-1.1c2.2,0,3.3,1.2,3.3,3.8v4.8h-2l-0.2-0.9h-0.1c-0.7,0.6-1.5,1.1-2.4,1.1C77.3,19.4,76.3,18.3,76.3,16.9z
		 M81.1,16.8v-1.5c-1.8,0.2-2.4,0.7-2.4,1.4c0,0.5,0.4,0.8,1,0.8C80.3,17.5,80.6,17.2,81.1,16.8z"/>
	<path class="st1" d="M85.7,10.8h2l0.2,1.1H88c0.7-0.7,1.6-1.3,2.7-1.3c1.8,0,2.6,1.3,2.6,3.4v5.2h-2.5v-4.9c0-1.2-0.3-1.6-1-1.6
		c-0.6,0-1,0.3-1.6,0.8v5.7h-2.5V10.8z"/>
	<path class="st1" d="M94.9,20.6c0-0.7,0.4-1.3,1.2-1.7v-0.1c-0.4-0.3-0.8-0.7-0.8-1.4c0-0.6,0.4-1.2,0.9-1.6v-0.1
		c-0.6-0.4-1.1-1.2-1.1-2.2c0-2,1.7-3,3.5-3c0.5,0,0.9,0.1,1.3,0.2h3.1v1.8h-1.4c0.2,0.3,0.3,0.7,0.3,1.1c0,1.9-1.5,2.8-3.3,2.8
		c-0.3,0-0.7-0.1-1-0.2c-0.2,0.2-0.3,0.3-0.3,0.6c0,0.4,0.3,0.6,1.3,0.6h1.4c2.1,0,3.2,0.6,3.2,2.1c0,1.7-1.8,3-4.7,3
		C96.4,22.8,94.9,22.1,94.9,20.6z M100.7,20.2c0-0.5-0.5-0.7-1.3-0.7h-0.9c-0.6,0-0.9,0-1.2-0.1c-0.3,0.3-0.5,0.5-0.5,0.8
		c0,0.6,0.7,1,1.9,1C99.9,21.2,100.7,20.8,100.7,20.2z M99.7,13.6c0-0.9-0.5-1.4-1.1-1.4s-1.1,0.5-1.1,1.4c0,0.9,0.5,1.4,1.1,1.4
		S99.7,14.5,99.7,13.6z"/>
	<path class="st1" d="M103.9,15c0-2.7,1.9-4.4,4-4.4c2.4,0,3.6,1.7,3.6,4c0,0.4-0.1,0.9-0.1,1.1h-5c0.2,1.2,1.1,1.8,2.2,1.8
		c0.6,0,1.2-0.2,1.8-0.6l0.8,1.5c-0.9,0.6-2,0.9-3,0.9C105.8,19.4,103.9,17.8,103.9,15z M109.4,14.1c0-0.9-0.4-1.6-1.4-1.6
		c-0.8,0-1.5,0.5-1.6,1.6H109.4z"/>
	<path class="st1" d="M113.2,10.8h2l0.2,1.5h0.1c0.6-1.1,1.5-1.7,2.4-1.7c0.5,0,0.8,0.1,1,0.2l-0.4,2.2c-0.3-0.1-0.5-0.1-0.9-0.1
		c-0.6,0-1.4,0.4-1.9,1.6v4.9h-2.5V10.8z"/>
	<path class="st1" d="M119.6,14h4.2v1.8h-4.2V14z"/>
	<path class="st1" d="M128,10.2h-3V8.1h8.6v2.1h-3v9H128V10.2z"/>
	<path class="st1" d="M134.6,15c0-2.7,1.9-4.4,4-4.4c2.4,0,3.6,1.7,3.6,4c0,0.4-0.1,0.9-0.1,1.1h-5c0.2,1.2,1.1,1.8,2.2,1.8
		c0.6,0,1.2-0.2,1.8-0.6l0.8,1.5c-0.9,0.6-2,0.9-3,0.9C136.4,19.4,134.6,17.8,134.6,15z M140,14.1c0-0.9-0.4-1.6-1.4-1.6
		c-0.8,0-1.5,0.5-1.6,1.6H140z M137.5,8.3l2.6-3.1l1.7,1.7l-3.1,2.7L137.5,8.3z"/>
	<path class="st1" d="M144.2,16.1v-3.4H143v-1.9l1.3-0.1l0.3-2.2h2.1v2.2h2v2h-2v3.4c0,1,0.4,1.3,1.1,1.3c0.3,0,0.6-0.1,0.8-0.2
		l0.4,1.8c-0.4,0.1-1.1,0.3-1.9,0.3C145,19.4,144.2,18.1,144.2,16.1z"/>
	<path class="st1" d="M149.8,15c0-2.8,2-4.4,4.1-4.4s4.1,1.6,4.1,4.4c0,2.8-2,4.4-4.1,4.4S149.8,17.8,149.8,15z M155.5,15
		c0-1.5-0.5-2.4-1.5-2.4c-1,0-1.5,0.9-1.5,2.4s0.5,2.4,1.5,2.4C155,17.4,155.5,16.4,155.5,15z"/>
	<path class="st1" d="M159.7,16v-5.2h2.5v4.9c0,1.2,0.3,1.6,1,1.6c0.6,0,1-0.3,1.5-0.9v-5.6h2.5v8.4h-2L165,18h-0.1
		c-0.7,0.8-1.5,1.4-2.6,1.4C160.4,19.4,159.7,18.1,159.7,16z"/>
	<path class="st1" d="M169,16.9c0-1.8,1.4-2.7,4.7-3.1c0-0.7-0.4-1.2-1.3-1.2c-0.7,0-1.4,0.3-2.2,0.8l-0.9-1.6
		c1.1-0.7,2.3-1.1,3.6-1.1c2.2,0,3.3,1.2,3.3,3.8v4.8h-2l-0.2-0.9h-0.1c-0.7,0.6-1.5,1.1-2.4,1.1C170,19.4,169,18.3,169,16.9z
		 M173.7,16.8v-1.5c-1.8,0.2-2.4,0.7-2.4,1.4c0,0.5,0.4,0.8,1,0.8C172.9,17.5,173.3,17.2,173.7,16.8z"/>
	<path class="st1" d="M178.3,10.8h2l0.2,1.1h0.1c0.7-0.7,1.6-1.3,2.7-1.3c1.8,0,2.6,1.3,2.6,3.4v5.2h-2.5v-4.9c0-1.2-0.3-1.6-1-1.6
		c-0.6,0-1,0.3-1.6,0.8v5.7h-2.5V10.8z"/>
	<path class="st1" d="M187.7,14h4.2v1.8h-4.2V14z"/>
	<path class="st1" d="M195.9,8.1h3l3.5,11.1h-2.6l-1.4-5.6c-0.3-1.1-0.6-2.4-0.9-3.6h-0.1c-0.3,1.2-0.6,2.5-0.9,3.6l-1.5,5.6h-2.6
		L195.9,8.1z M194.7,14.6h5.3v1.9h-5.3V14.6z"/>
	<path class="st1" d="M203.4,16.6V7.3h2.5v9.4c0,0.5,0.2,0.7,0.5,0.7c0.1,0,0.2,0,0.3,0l0.3,1.8c-0.3,0.1-0.7,0.2-1.3,0.2
		C204,19.4,203.4,18.3,203.4,16.6z"/>
	<path class="st1" d="M211.8,8.1h2.5v4.3h3.8V8.1h2.5v11.1h-2.5v-4.6h-3.8v4.6h-2.5V8.1z"/>
	<path class="st1" d="M222.6,15c0-2.8,2-4.4,4.1-4.4s4.1,1.6,4.1,4.4c0,2.8-2,4.4-4.1,4.4S222.6,17.8,222.6,15z M228.2,15
		c0-1.5-0.5-2.4-1.5-2.4c-1,0-1.5,0.9-1.5,2.4s0.5,2.4,1.5,2.4C227.7,17.4,228.2,16.4,228.2,15z"/>
	<path class="st1" d="M232,15c0-2.8,2.1-4.4,4.4-4.4c1,0,1.8,0.4,2.5,0.9l-1.2,1.6c-0.4-0.3-0.7-0.5-1.1-0.5c-1.2,0-2,0.9-2,2.4
		s0.8,2.4,1.9,2.4c0.6,0,1.1-0.3,1.5-0.6l1,1.6c-0.8,0.7-1.9,1-2.8,1C233.8,19.4,232,17.8,232,15z"/>
	<path class="st1" d="M239.9,15c0-2.7,1.9-4.4,4-4.4c2.4,0,3.6,1.7,3.6,4c0,0.4-0.1,0.9-0.1,1.1h-5c0.2,1.2,1.1,1.8,2.2,1.8
		c0.6,0,1.2-0.2,1.8-0.6l0.8,1.5c-0.9,0.6-2,0.9-3,0.9C241.8,19.4,239.9,17.8,239.9,15z M245.3,14.1c0-0.9-0.4-1.6-1.4-1.6
		c-0.8,0-1.5,0.5-1.6,1.6H245.3z"/>
	<path class="st1" d="M249,8.2c0-0.8,0.6-1.3,1.4-1.3s1.4,0.5,1.4,1.3c0,0.8-0.6,1.3-1.4,1.3S249,9,249,8.2z M249.2,10.8h2.5v8.4
		h-2.5V10.8z"/>
	<path class="st1" d="M253.9,10.8h2l0.2,1.1h0.1c0.7-0.7,1.4-1.3,2.6-1.3c1.2,0,1.9,0.5,2.3,1.4c0.7-0.8,1.5-1.4,2.6-1.4
		c1.8,0,2.6,1.3,2.6,3.4v5.2h-2.5v-4.9c0-1.2-0.3-1.6-1-1.6c-0.4,0-0.9,0.3-1.4,0.8v5.7h-2.5v-4.9c0-1.2-0.3-1.6-1-1.6
		c-0.4,0-0.9,0.3-1.4,0.8v5.7h-2.5V10.8z"/>
	<path class="st1" d="M268,16.9c0-1.8,1.4-2.7,4.7-3.1c-0.1-0.7-0.4-1.2-1.3-1.2c-0.7,0-1.4,0.3-2.2,0.8l-0.9-1.6
		c1.1-0.7,2.3-1.1,3.6-1.1c2.2,0,3.3,1.2,3.3,3.8v4.8h-2l-0.2-0.9H273c-0.7,0.6-1.5,1.1-2.4,1.1C269,19.4,268,18.3,268,16.9z
		 M272.8,16.8v-1.5c-1.8,0.2-2.4,0.7-2.4,1.4c0,0.5,0.4,0.8,1,0.8C271.9,17.5,272.3,17.2,272.8,16.8z"/>
</g>
</svg>
